<?xml version="1.0" encoding="UTF-8"?>
<svg version="1.1" viewBox="0 0 1000 1125" xmlns="http://www.w3.org/2000/svg">
<g transform="translate(1.7053e-13)">
<svg width="1e3" height="1125" data-background-color="#ffffff" viewBox="0 0 320 360" xmlns="http://www.w3.org/2000/svg" xmlns:xlink="http://www.w3.org/1999/xlink">
<g>
<svg width="320" height="360" viewBox="0 0 320 360">
<svg/>
<svg width="320" height="360" viewBox="0 0 320 360">
<path d="m20.961 227.22 3.726 4.658-1.863-6.056c-0.466-2.795-3.726 0.466-1.863 1.398m4.192-2.795c1.397 2.329 2.795 4.658 2.795 6.987 0 3.261 2.795 4.658 5.123 5.589-3.261-3.726-5.124-13.974-7.918-12.576m178.86-197.5c7.918 0 15.371-0.932 23.756 0.931 20.495 5.124 37.729 15.371 49.374 29.811l32.606 52.169c1.397 13.042 4.192 27.482 3.726 43.319 3.261 0 2.795-4.658 6.521-5.59-3.726 9.316-5.59 20.961-6.521 34.469-2.329-7.453 0-18.632 0.466-24.687-3.261 5.124-5.124 1.397-5.124-0.932 0.466-3.726-1.397-3.261-2.795-4.658-5.124-4.658-8.384-9.782-12.11-17.7 2.329-6.055 2.795-14.905-4.658-19.563-2.329-1.397-5.124-3.726-6.521-7.453-1.863-5.124-5.124-11.179-4.193-19.097 0.466-2.329-6.987 5.124-11.179 1.863-18.166-12.576-36.332-27.016-58.224-39.127-11.645 0-20.029-4.192-24.221-9.316-3.726-4.658-0.932-10.713 4.658-11.179 3.261 0 6.987-0.932 9.782 0.932 0.466-1.863 2.329-4.192 4.657-4.192m-46.113-10.714 0.932 0.466c4.658 0.932 6.987 7.453 12.11 5.124 0 3.261 0.466 6.521-0.466 8.85-1.397 3.726-5.59 3.726-8.85 3.726-31.208-1.863-49.374 11.179-68.471 22.358-5.124 3.261-10.713 5.59-14.906 9.782-20.029 18.632-41.921 35.866-47.045 70.335l-4.192 38.195c-0.466 4.192-5.124 8.384-4.192 13.508l3.26 22.824c-3.261-3.261-5.124 0.932-4.192 2.795 0.466 1.397 2.329 6.055 5.124 1.863 3.726 6.987 7.453 20.495 12.576 26.55 15.837 18.632 36.332 35.4 53.101 52.169 4.192-0.932 7.453-0.932 8.384-3.727 1.397 2.795-1.397 5.59-3.726 6.056 7.453 4.658 15.837 8.85 27.016 9.781 14.44 0.932 27.948 3.261 40.524 6.522 6.521-1.863 13.042-2.795 20.029-3.261 2.329 0 3.726-3.726 6.521-4.658l0.466-4.658c2.795 4.192 2.329-1.397 0.466-4.192 3.261 2.795 4.192 5.124 5.589 6.987 0-1.397 3.726-6.521 3.727-0.466l0.931-6.055c1.397-0.932 1.863 5.124 3.261 0.931 1.397-4.192 4.192-0.932 6.987-2.329-0.932 1.863-0.466 5.59 2.794 3.261l3.727-3.261c2.329 5.59 6.055 3.261 7.918 2.329 20.495-13.042 40.99-28.413 60.553-43.784l-0.466 6.055 2.329-7.453c2.329 2.329 4.192 0.466 5.124-0.931 2.795-4.658 6.521-9.316 12.577-13.508-7.453 20.029-16.303 35.866-27.482 48.908l-4.658 5.59c0 3.261-0.932 7.453-4.658 7.918-1.863 0.466-5.59-0.932-8.384 1.863-1.397 1.863 3.261 5.59-0.466 2.795-3.261-2.329-6.521 0-10.248 0.932-2.795 0.932 1.863 3.726 2.795 5.589s1.863 3.726 1.398 6.056l-5.124-5.59c-6.055 3.261-9.782 9.316-14.906 13.974-2.329 1.863-1.397 5.124-1.397 7.918-3.261 0-6.987-0.932-8.85 0.932-1.397 1.863-0.932 4.658-0.932 7.453-4.658-0.466-5.124-7.453-9.315-6.056-4.192 0.932-8.85 1.397-12.577 3.727 2.795 5.59-4.658 2.329-3.726 3.26-6.987-4.192-13.042-7.453-20.495-4.658-15.837-5.124-35.4-2.795-49.84-0.931 0-2.329 0.466-4.658-0.466-5.124-0.932 2.329-3.726 1.397-3.26 1.397-8.85-6.055-17.7-9.782-27.016-14.905-8.384 0.932-16.303-3.261-18.632-5.59-6.521-6.055-13.974-2.795-20.029-4.192-13.042-3.261-17.7-16.769-19.098-26.084-0.932-4.658-4.658-6.521-6.055-6.056-6.055-19.563-15.371-37.263-22.824-55.429-1.863-4.658-1.397-9.316-1.397-14.44 2.329 0.932 4.658 0.466 4.192-2.794-2.329-15.371-7.918-27.016-13.974-38.195 3.261-15.837 3.726-34.469 11.179-48.443 6.521-12.576 18.632-19.098 27.016-29.811 2.795-3.726 2.795-8.85 5.59-12.11 9.316-9.316 18.632-19.098 28.879-27.482 4.658-3.726 10.247 0 17.234-1.397 2.329-8.384 11.645-15.837 20.495-13.508 3.726 0.932 11.179-8.85 13.508-9.782 3.726-1.397 1.863 3.726 1.863 6.987 8.85-6.987 20.961-10.713 32.14-14.906" fill="#0718c4" font-family="none" font-size="none" font-weight="none" stroke-dasharray="" stroke-miterlimit="10" text-anchor="none" style="mix-blend-mode:normal" data-fill-palette-color="tertiary" xmlns="http://www.w3.org/2000/svg"/>
<g transform="translate(64 145.99)">
<svg width="192" height="68.025" viewBox="0 0 192 68.0250771314578">
<svg width="192" height="68.025" viewBox="0 0 192 68.0250771314578">
<svg width="192" height="68.025" viewBox="0 0 192 68.0250771314578">
<g transform="translate(0 41.116)">
<svg width="192" height="26.909" viewBox="0 0 192 26.909462915601026">
<svg width="192" height="26.909" viewBox="0 0 192 26.909462915601026">
<svg width="192" height="26.909" viewBox="0 0 192 26.909462915601026">
<g>
<svg width="192" height="26.909" data-palette-color="#0718c4" viewBox="-0.10000000149011612 -33.45000076293945 238.6300048828125 33.45000076293945">
<path class="undefined-text-0" d="m10.69-33.45h7.52q2.47 0 4.47 0.74 2 0.73 3.41 2 1.4 1.27 2.16 2.96 0.75 1.7 0.75 3.6v14.85q0 1.9-0.75 3.6-0.76 1.7-2.16 2.97-1.41 1.27-3.41 2t-4.47 0.73h-7.52q-2.46 0-4.46-0.73-2.01-0.73-3.41-2t-2.16-2.97-0.76-3.6v-14.85q0-1.9 0.76-3.6 0.76-1.69 2.16-2.96t3.41-2q2-0.74 4.46-0.74zm8.52 2.2h-2.56v15.84l-0.34 1.47-1.61 0.29h-3.64v2.59h3.78l2.47-0.34 1.9-1.49v-18.36zm20.39-2.2h7.52q2.46 0 4.46 0.74 2.01 0.73 3.41 2t2.16 2.96q0.76 1.7 0.76 3.6v14.85q0 1.9-0.76 3.6t-2.16 2.97-3.41 2q-2 0.73-4.46 0.73h-7.52q-2.47 0-4.47-0.73t-3.41-2q-1.4-1.27-2.16-2.97-0.75-1.7-0.75-3.6v-14.85q0-1.9 0.75-3.6 0.76-1.69 2.16-2.96 1.41-1.27 3.41-2 2-0.74 4.47-0.74zm12.55 18.46v-12.3l-0.35-2.06-1.53-1.56-2.52-0.34h-6.54l-2.49 0.34-1.56 1.56-0.3 2.06v12.3l0.3 2.1 1.61 1.54 2.44 0.29h6.54l2.52-0.29 1.53-1.54 0.35-2.1zm-2.59-0.27-0.34 1.37-1.62 0.24h-6.25l-1.58-0.24-0.37-1.47v-11.69l0.25-1.34 1.7-0.27h6.25l1.71 0.27 0.25 1.44v11.69zm23.8-5.03-4.35-10.96h-3.05l6.11 14.5v5.69h2.58v-5.64l6.2-14.55h-3.05l-4.44 10.96zm-4.86-13.16h7.52q2.47 0 4.47 0.74 2 0.73 3.4 2 1.41 1.27 2.16 2.96 0.76 1.7 0.76 3.6v14.85q0 1.9-0.76 3.6-0.75 1.7-2.16 2.97-1.4 1.27-3.4 2t-4.47 0.73h-7.52q-2.46 0-4.47-0.73-2-0.73-3.4-2-1.41-1.27-2.16-2.97-0.76-1.7-0.76-3.6v-14.85q0-1.9 0.76-3.6 0.75-1.69 2.16-2.96 1.4-1.27 3.4-2 2.01-0.74 4.47-0.74zm28.9 0h7.52q2.47 0 4.47 0.74 2 0.73 3.41 2 1.4 1.27 2.16 2.96 0.76 1.7 0.76 3.6v14.85q0 1.9-0.76 3.6t-2.16 2.97q-1.41 1.27-3.41 2t-4.47 0.73h-7.52q-2.46 0-4.46-0.73-2.01-0.73-3.41-2t-2.16-2.97-0.76-3.6v-14.85q0-1.9 0.76-3.6 0.76-1.69 2.16-2.96t3.41-2q2-0.74 4.46-0.74zm12.11 18.46v-3.71l-0.34-2.1-1.56-1.54-2.54-0.27h-5.47l-1.49-0.29q-0.12-0.42-0.17-0.75-0.05-0.32-0.17-0.69v-2.56l0.34-1.44 1.61-0.32h6.21l2.29 0.46 0.59-2.66-2.84-0.39h-6.42l-2.44 0.34-1.59 1.56-0.31 2.06v3.34l0.31 2.05 1.59 1.54 2.44 0.32h5.52l1.49 0.24q0.07 0.37 0.17 0.68 0.1 0.32 0.17 0.66v3.2q-0.05 0.32-0.16 0.68-0.11 0.37-0.18 0.69l-1.59 0.24h-6.05l-2.39-0.39-0.61 2.64 2.85 0.34h6.35l2.49-0.29 1.56-1.54 0.34-2.1zm36.16-13.67v-2.59h-14.12v2.59h5.77v17.6h2.61v-17.6h5.74zm-12.16-4.79h7.52q2.46 0 4.47 0.74 2 0.73 3.4 2t2.16 2.96q0.76 1.7 0.76 3.6v14.85q0 1.9-0.76 3.6t-2.16 2.97-3.4 2q-2.01 0.73-4.47 0.73h-7.52q-2.47 0-4.47-0.73t-3.41-2q-1.4-1.27-2.16-2.97-0.75-1.7-0.75-3.6v-14.85q0-1.9 0.75-3.6 0.76-1.69 2.16-2.96 1.41-1.27 3.41-2 2-0.74 4.47-0.74zm28.9 0h7.52q2.47 0 4.47 0.74 2 0.73 3.4 2 1.41 1.27 2.17 2.96 0.75 1.7 0.75 3.6v14.85q0 1.9-0.75 3.6-0.76 1.7-2.17 2.97-1.4 1.27-3.4 2t-4.47 0.73h-7.52q-2.46 0-4.47-0.73-2-0.73-3.4-2-1.41-1.27-2.16-2.97-0.76-1.7-0.76-3.6v-14.85q0-1.9 0.76-3.6 0.75-1.69 2.16-2.96 1.4-1.27 3.4-2 2.01-0.74 4.47-0.74zm12.55 18.46v-12.3l-0.34-2.06-1.54-1.56-2.51-0.34h-6.55l-2.49 0.34-1.56 1.56-0.29 2.06v12.3l0.29 2.1 1.61 1.54 2.44 0.29h6.55l2.51-0.29 1.54-1.54 0.34-2.1zm-2.59-0.27-0.34 1.37-1.61 0.24h-6.25l-1.59-0.24-0.36-1.47v-11.69l0.24-1.34 1.71-0.27h6.25l1.71 0.27 0.24 1.44v11.69zm23.8-5.03-4.34-10.96h-3.05l6.1 14.5v5.69h2.59v-5.64l6.2-14.55h-3.05l-4.45 10.96zm-4.85-13.16h7.52q2.46 0 4.46 0.74 2 0.73 3.41 2 1.4 1.27 2.16 2.96 0.76 1.7 0.76 3.6v14.85q0 1.9-0.76 3.6t-2.16 2.97q-1.41 1.27-3.41 2t-4.46 0.73h-7.52q-2.47 0-4.47-0.73t-3.41-2q-1.4-1.27-2.16-2.97t-0.76-3.6v-14.85q0-1.9 0.76-3.6 0.76-1.69 2.16-2.96 1.41-1.27 3.41-2 2-0.74 4.47-0.74zm28.9 0h7.52q2.46 0 4.47 0.74 2 0.73 3.4 2 1.41 1.27 2.16 2.96 0.76 1.7 0.76 3.6v14.85q0 1.9-0.76 3.6-0.75 1.7-2.16 2.97-1.4 1.27-3.4 2-2.01 0.73-4.47 0.73h-7.52q-2.47 0-4.47-0.73t-3.4-2q-1.41-1.27-2.16-2.97-0.76-1.7-0.76-3.6v-14.85q0-1.9 0.76-3.6 0.75-1.69 2.16-2.96 1.4-1.27 3.4-2 2-0.74 4.47-0.74zm12.11 18.46v-3.71l-0.34-2.1-1.57-1.54-2.53-0.27h-5.47l-1.49-0.29q-0.12-0.42-0.17-0.75-0.05-0.32-0.17-0.69v-2.56l0.34-1.44 1.61-0.32h6.2l2.29 0.46 0.59-2.66-2.83-0.39h-6.42l-2.44 0.34-1.59 1.56-0.32 2.06v3.34l0.32 2.05 1.59 1.54 2.44 0.32h5.52l1.48 0.24q0.08 0.37 0.18 0.68 0.09 0.32 0.17 0.66v3.2q-0.05 0.32-0.16 0.68-0.11 0.37-0.19 0.69l-1.58 0.24h-6.06l-2.39-0.39-0.61 2.64 2.86 0.34h6.34l2.49-0.29 1.57-1.54 0.34-2.1z" fill="#0718c4" data-fill-palette-color="primary"/>
</svg>
</g>
</svg>
</svg>
</svg>
</g>
<g transform="translate(83.847)">
<svg width="24.307" height="37.189" viewBox="0 0 24.306895474211036 37.18887774936062">
<svg class="icon-icon-0" width="24.307" height="37.189" enable-background="new 0 0 100 100" fill="#24a8df" data-fill-palette-color="accent" version="1.1" viewBox="22.875 8.25 54.25 83.0009994506836" xml:space="preserve" xmlns="http://www.w3.org/2000/svg" xmlns:xlink="http://www.w3.org/1999/xlink"><path d="m38.917 34.167v-4.538c-2.506 0-4.538 2.032-4.538 4.538 0 2.505 2.032 4.537 4.538 4.537 2.505 0 4.538-2.032 4.538-4.537 0-1.252-0.508-2.387-1.329-3.208l-3.209 3.208z" data-fill-palette-color="accent"/><path d="m61.084 34.167v-4.538c-2.506 0-4.538 2.032-4.538 4.538 0 2.505 2.032 4.537 4.538 4.537 2.505 0 4.537-2.032 4.537-4.537 0-1.252-0.508-2.387-1.328-3.208l-3.209 3.208z" data-fill-palette-color="accent"/><path d="m50 8.25c-14.98 0-27.125 12.145-27.125 27.125v47.126c0 4.832 3.918 8.75 8.75 8.75 3.219 0 6.021-1.744 7.538-4.334h0.01c0.363-0.503 0.951-0.834 1.619-0.834s1.256 0.331 1.619 0.834h0.01c1.518 2.59 4.319 4.334 7.538 4.334 3.218 0 6.021-1.744 7.537-4.334h0.01c0.363-0.503 0.951-0.834 1.619-0.834s1.256 0.331 1.619 0.834h0.011c1.517 2.59 4.319 4.334 7.537 4.334 4.832 0 8.75-3.918 8.75-8.75 0-3.523 0.083-47.126 0.083-47.126 0-14.98-12.145-27.125-27.125-27.125zm-19.333 25.917c0-4.556 3.693-8.25 8.25-8.25s8.25 3.694 8.25 8.25-3.692 8.25-8.25 8.25c-4.557 0-8.25-3.694-8.25-8.25zm19.333 22.5c-6.269 0-11.453-4.637-12.316-10.667h24.633c-0.864 6.03-6.047 10.667-12.317 10.667zm11.084-14.25c-4.557 0-8.25-3.694-8.25-8.25s3.693-8.25 8.25-8.25 8.249 3.694 8.249 8.25-3.692 8.25-8.249 8.25z" data-fill-palette-color="accent"/></svg>
</svg>
</g>
</svg>
</svg>
</svg>
</g>
</svg>
</svg>
<rect width="320" height="360" fill="none" visibility="hidden"/>
</g>
</svg>
</g>
</svg>
