<svg xmlns="http://www.w3.org/2000/svg" version="1.1" xmlns:xlink="http://www.w3.org/1999/xlink" xmlns:svgjs="http://svgjs.dev/svgjs" width="1000" height="1000" viewBox="0 0 1000 1000"><rect width="1000" height="1000" fill="#000000"></rect><g transform="matrix(0.7,0,0,0.7,150.0000000000001,106.25)"><svg viewBox="0 0 320 360" data-background-color="#ffffff" preserveAspectRatio="xMidYMid meet" height="1125" width="1000" xmlns="http://www.w3.org/2000/svg" xmlns:xlink="http://www.w3.org/1999/xlink"><g id="tight-bounds" transform="matrix(1,0,0,1,0,0)"><svg viewBox="0 0 320 360" height="360" width="320"><g><svg></svg></g><g><svg viewBox="0 0 320 360" height="360" width="320"><g><path xmlns="http://www.w3.org/2000/svg" d="M20.961 227.22l3.726 4.658-1.863-6.056c-0.466-2.795-3.726 0.466-1.863 1.398M25.153 224.425c1.397 2.329 2.795 4.658 2.795 6.987 0 3.261 2.795 4.658 5.123 5.589-3.261-3.726-5.124-13.974-7.918-12.576M204.017 26.929c7.918 0 15.371-0.932 23.756 0.931 20.495 5.124 37.729 15.371 49.374 29.811l32.606 52.169c1.397 13.042 4.192 27.482 3.726 43.319 3.261 0 2.795-4.658 6.521-5.59-3.726 9.316-5.59 20.961-6.521 34.469-2.329-7.453 0-18.632 0.466-24.687-3.261 5.124-5.124 1.397-5.124-0.932 0.466-3.726-1.397-3.261-2.795-4.658-5.124-4.658-8.384-9.782-12.11-17.7 2.329-6.055 2.795-14.905-4.658-19.563-2.329-1.397-5.124-3.726-6.521-7.453-1.863-5.124-5.124-11.179-4.193-19.097 0.466-2.329-6.987 5.124-11.179 1.863-18.166-12.576-36.332-27.016-58.224-39.127-11.645 0-20.029-4.192-24.221-9.316-3.726-4.658-0.932-10.713 4.658-11.179 3.261 0 6.987-0.932 9.782 0.932 0.466-1.863 2.329-4.192 4.657-4.192M157.904 16.215l0.932 0.466c4.658 0.932 6.987 7.453 12.11 5.124 0 3.261 0.466 6.521-0.466 8.85-1.397 3.726-5.59 3.726-8.85 3.726-31.208-1.863-49.374 11.179-68.471 22.358-5.124 3.261-10.713 5.59-14.906 9.782-20.029 18.632-41.921 35.866-47.045 70.335l-4.192 38.195c-0.466 4.192-5.124 8.384-4.192 13.508l3.26 22.824c-3.261-3.261-5.124 0.932-4.192 2.795 0.466 1.397 2.329 6.055 5.124 1.863 3.726 6.987 7.453 20.495 12.576 26.55 15.837 18.632 36.332 35.4 53.101 52.169 4.192-0.932 7.453-0.932 8.384-3.727 1.397 2.795-1.397 5.59-3.726 6.056 7.453 4.658 15.837 8.85 27.016 9.781 14.44 0.932 27.948 3.261 40.524 6.522 6.521-1.863 13.042-2.795 20.029-3.261 2.329 0 3.726-3.726 6.521-4.658l0.466-4.658c2.795 4.192 2.329-1.397 0.466-4.192 3.261 2.795 4.192 5.124 5.589 6.987 0-1.397 3.726-6.521 3.727-0.466l0.931-6.055c1.397-0.932 1.863 5.124 3.261 0.931 1.397-4.192 4.192-0.932 6.987-2.329-0.932 1.863-0.466 5.59 2.794 3.261l3.727-3.261c2.329 5.59 6.055 3.261 7.918 2.329 20.495-13.042 40.99-28.413 60.553-43.784l-0.466 6.055 2.329-7.453c2.329 2.329 4.192 0.466 5.124-0.931 2.795-4.658 6.521-9.316 12.577-13.508-7.453 20.029-16.303 35.866-27.482 48.908l-4.658 5.59c0 3.261-0.932 7.453-4.658 7.918-1.863 0.466-5.59-0.932-8.384 1.863-1.397 1.863 3.261 5.59-0.466 2.795-3.261-2.329-6.521 0-10.248 0.932-2.795 0.932 1.863 3.726 2.795 5.589 0.932 1.863 1.863 3.726 1.398 6.056l-5.124-5.59c-6.055 3.261-9.782 9.316-14.906 13.974-2.329 1.863-1.397 5.124-1.397 7.918-3.261 0-6.987-0.932-8.85 0.932-1.397 1.863-0.932 4.658-0.932 7.453-4.658-0.466-5.124-7.453-9.315-6.056-4.192 0.932-8.85 1.397-12.577 3.727 2.795 5.59-4.658 2.329-3.726 3.26-6.987-4.192-13.042-7.453-20.495-4.658-15.837-5.124-35.4-2.795-49.84-0.931 0-2.329 0.466-4.658-0.466-5.124-0.932 2.329-3.726 1.397-3.26 1.397-8.85-6.055-17.7-9.782-27.016-14.905-8.384 0.932-16.303-3.261-18.632-5.59-6.521-6.055-13.974-2.795-20.029-4.192-13.042-3.261-17.7-16.769-19.098-26.084-0.932-4.658-4.658-6.521-6.055-6.056-6.055-19.563-15.371-37.263-22.824-55.429-1.863-4.658-1.397-9.316-1.397-14.44 2.329 0.932 4.658 0.466 4.192-2.794-2.329-15.371-7.918-27.016-13.974-38.195 3.261-15.837 3.726-34.469 11.179-48.443 6.521-12.576 18.632-19.098 27.016-29.811 2.795-3.726 2.795-8.85 5.59-12.11 9.316-9.316 18.632-19.098 28.879-27.482 4.658-3.726 10.247 0 17.234-1.397 2.329-8.384 11.645-15.837 20.495-13.508 3.726 0.932 11.179-8.85 13.508-9.782 3.726-1.397 1.863 3.726 1.863 6.987 8.85-6.987 20.961-10.713 32.14-14.906" fill="#ffffff" fill-rule="nonzero" stroke="none" stroke-width="1" stroke-linecap="butt" stroke-linejoin="miter" stroke-miterlimit="10" stroke-dasharray="" stroke-dashoffset="0" font-family="none" font-weight="none" font-size="none" text-anchor="none" style="mix-blend-mode: normal" data-fill-palette-color="tertiary"></path></g><g transform="matrix(1,0,0,1,64,145.9874614342711)"><svg viewBox="0 0 192 68.0250771314578" height="68.0250771314578" width="192"><g><svg viewBox="0 0 192 68.0250771314578" height="68.0250771314578" width="192"><g><svg viewBox="0 0 192 68.0250771314578" height="68.0250771314578" width="192"><g transform="matrix(1,0,0,1,0,41.11561421585679)"><svg viewBox="0 0 192 26.909462915601026" height="26.909462915601026" width="192"><g id="textblocktransform"><svg viewBox="0 0 192 26.909462915601026" height="26.909462915601026" width="192" id="textblock"><g><svg viewBox="0 0 192 26.909462915601026" height="26.909462915601026" width="192"><g transform="matrix(1,0,0,1,0,0)"><svg width="192" viewBox="-0.10000000149011612 -33.45000076293945 238.6300048828125 33.45000076293945" height="26.909462915601026" data-palette-color="#0718c4"><path d="M10.69-33.45L18.21-33.45Q20.68-33.45 22.68-32.71 24.68-31.98 26.09-30.71 27.49-29.44 28.25-27.75 29-26.05 29-24.15L29-24.15 29-9.3Q29-7.4 28.25-5.7 27.49-4 26.09-2.73 24.68-1.46 22.68-0.73 20.68 0 18.21 0L18.21 0 10.69 0Q8.23 0 6.23-0.73 4.22-1.46 2.82-2.73 1.42-4 0.66-5.7-0.1-7.4-0.1-9.3L-0.1-9.3-0.1-24.15Q-0.1-26.05 0.66-27.75 1.42-29.44 2.82-30.71 4.22-31.98 6.23-32.71 8.23-33.45 10.69-33.45L10.69-33.45ZM19.21-31.25L16.65-31.25 16.65-15.41 16.31-13.94 14.7-13.65 11.06-13.65 11.06-11.06 14.84-11.06 17.31-11.4 19.21-12.89 19.21-31.25ZM39.6-33.45L47.12-33.45Q49.58-33.45 51.58-32.71 53.59-31.98 54.99-30.71 56.39-29.44 57.15-27.75 57.91-26.05 57.91-24.15L57.91-24.15 57.91-9.3Q57.91-7.4 57.15-5.7 56.39-4 54.99-2.73 53.59-1.46 51.58-0.73 49.58 0 47.12 0L47.12 0 39.6 0Q37.13 0 35.13-0.73 33.13-1.46 31.72-2.73 30.32-4 29.56-5.7 28.81-7.4 28.81-9.3L28.81-9.3 28.81-24.15Q28.81-26.05 29.56-27.75 30.32-29.44 31.72-30.71 33.13-31.98 35.13-32.71 37.13-33.45 39.6-33.45L39.6-33.45ZM52.15-14.99L52.15-27.29 51.8-29.35 50.27-30.91 47.75-31.25 41.21-31.25 38.72-30.91 37.16-29.35 36.86-27.29 36.86-14.99 37.16-12.89 38.77-11.35 41.21-11.06 47.75-11.06 50.27-11.35 51.8-12.89 52.15-14.99ZM49.56-15.26L49.22-13.89 47.6-13.65 41.35-13.65 39.77-13.89 39.4-15.36 39.4-27.05 39.65-28.39 41.35-28.66 47.6-28.66 49.31-28.39 49.56-26.95 49.56-15.26ZM73.36-20.29L69.01-31.25 65.96-31.25 72.07-16.75 72.07-11.06 74.65-11.06 74.65-16.7 80.85-31.25 77.8-31.25 73.36-20.29ZM68.5-33.45L76.02-33.45Q78.49-33.45 80.49-32.71 82.49-31.98 83.89-30.71 85.3-29.44 86.05-27.75 86.81-26.05 86.81-24.15L86.81-24.15 86.81-9.3Q86.81-7.4 86.05-5.7 85.3-4 83.89-2.73 82.49-1.46 80.49-0.73 78.49 0 76.02 0L76.02 0 68.5 0Q66.04 0 64.03-0.73 62.03-1.46 60.63-2.73 59.22-4 58.47-5.7 57.71-7.4 57.71-9.3L57.71-9.3 57.71-24.15Q57.71-26.05 58.47-27.75 59.22-29.44 60.63-30.71 62.03-31.98 64.03-32.71 66.04-33.45 68.5-33.45L68.5-33.45ZM97.4-33.45L104.92-33.45Q107.39-33.45 109.39-32.71 111.39-31.98 112.8-30.71 114.2-29.44 114.96-27.75 115.72-26.05 115.72-24.15L115.72-24.15 115.72-9.3Q115.72-7.4 114.96-5.7 114.2-4 112.8-2.73 111.39-1.46 109.39-0.73 107.39 0 104.92 0L104.92 0 97.4 0Q94.94 0 92.94-0.73 90.93-1.46 89.53-2.73 88.13-4 87.37-5.7 86.61-7.4 86.61-9.3L86.61-9.3 86.61-24.15Q86.61-26.05 87.37-27.75 88.13-29.44 89.53-30.71 90.93-31.98 92.94-32.71 94.94-33.45 97.4-33.45L97.4-33.45ZM109.51-14.99L109.51-18.7 109.17-20.8 107.61-22.34 105.07-22.61 99.6-22.61 98.11-22.9Q97.99-23.32 97.94-23.65 97.89-23.97 97.77-24.34L97.77-24.34 97.77-26.9 98.11-28.34 99.72-28.66 105.93-28.66 108.22-28.2 108.81-30.86 105.97-31.25 99.55-31.25 97.11-30.91 95.52-29.35 95.21-27.29 95.21-23.95 95.52-21.9 97.11-20.36 99.55-20.04 105.07-20.04 106.56-19.8Q106.63-19.43 106.73-19.12 106.83-18.8 106.9-18.46L106.9-18.46 106.9-15.26Q106.85-14.94 106.74-14.58 106.63-14.21 106.56-13.89L106.56-13.89 104.97-13.65 98.92-13.65 96.53-14.04 95.92-11.4 98.77-11.06 105.12-11.06 107.61-11.35 109.17-12.89 109.51-14.99ZM145.67-28.66L145.67-31.25 131.55-31.25 131.55-28.66 137.32-28.66 137.32-11.06 139.93-11.06 139.93-28.66 145.67-28.66ZM133.51-33.45L141.03-33.45Q143.49-33.45 145.5-32.71 147.5-31.98 148.9-30.71 150.3-29.44 151.06-27.75 151.82-26.05 151.82-24.15L151.82-24.15 151.82-9.3Q151.82-7.4 151.06-5.7 150.3-4 148.9-2.73 147.5-1.46 145.5-0.73 143.49 0 141.03 0L141.03 0 133.51 0Q131.04 0 129.04-0.73 127.04-1.46 125.63-2.73 124.23-4 123.47-5.7 122.72-7.4 122.72-9.3L122.72-9.3 122.72-24.15Q122.72-26.05 123.47-27.75 124.23-29.44 125.63-30.71 127.04-31.98 129.04-32.71 131.04-33.45 133.51-33.45L133.51-33.45ZM162.41-33.45L169.93-33.45Q172.4-33.45 174.4-32.71 176.4-31.98 177.8-30.71 179.21-29.44 179.97-27.75 180.72-26.05 180.72-24.15L180.72-24.15 180.72-9.3Q180.72-7.4 179.97-5.7 179.21-4 177.8-2.73 176.4-1.46 174.4-0.73 172.4 0 169.93 0L169.93 0 162.41 0Q159.95 0 157.94-0.73 155.94-1.46 154.54-2.73 153.13-4 152.38-5.7 151.62-7.4 151.62-9.3L151.62-9.3 151.62-24.15Q151.62-26.05 152.38-27.75 153.13-29.44 154.54-30.71 155.94-31.98 157.94-32.71 159.95-33.45 162.41-33.45L162.41-33.45ZM174.96-14.99L174.96-27.29 174.62-29.35 173.08-30.91 170.57-31.25 164.02-31.25 161.53-30.91 159.97-29.35 159.68-27.29 159.68-14.99 159.97-12.89 161.58-11.35 164.02-11.06 170.57-11.06 173.08-11.35 174.62-12.89 174.96-14.99ZM172.37-15.26L172.03-13.89 170.42-13.65 164.17-13.65 162.58-13.89 162.22-15.36 162.22-27.05 162.46-28.39 164.17-28.66 170.42-28.66 172.13-28.39 172.37-26.95 172.37-15.26ZM196.17-20.29L191.83-31.25 188.78-31.25 194.88-16.75 194.88-11.06 197.47-11.06 197.47-16.7 203.67-31.25 200.62-31.25 196.17-20.29ZM191.32-33.45L198.84-33.45Q201.3-33.45 203.3-32.71 205.3-31.98 206.71-30.71 208.11-29.44 208.87-27.75 209.63-26.05 209.63-24.15L209.63-24.15 209.63-9.3Q209.63-7.4 208.87-5.7 208.11-4 206.71-2.73 205.3-1.46 203.3-0.73 201.3 0 198.84 0L198.84 0 191.32 0Q188.85 0 186.85-0.73 184.85-1.46 183.44-2.73 182.04-4 181.28-5.7 180.52-7.4 180.52-9.3L180.52-9.3 180.52-24.15Q180.52-26.05 181.28-27.75 182.04-29.44 183.44-30.71 184.85-31.98 186.85-32.71 188.85-33.45 191.32-33.45L191.32-33.45ZM220.22-33.45L227.74-33.45Q230.2-33.45 232.21-32.71 234.21-31.98 235.61-30.71 237.02-29.44 237.77-27.75 238.53-26.05 238.53-24.15L238.53-24.15 238.53-9.3Q238.53-7.4 237.77-5.7 237.02-4 235.61-2.73 234.21-1.46 232.21-0.73 230.2 0 227.74 0L227.74 0 220.22 0Q217.75 0 215.75-0.73 213.75-1.46 212.35-2.73 210.94-4 210.19-5.7 209.43-7.4 209.43-9.3L209.43-9.3 209.43-24.15Q209.43-26.05 210.19-27.75 210.94-29.44 212.35-30.71 213.75-31.98 215.75-32.71 217.75-33.45 220.22-33.45L220.22-33.45ZM232.33-14.99L232.33-18.7 231.99-20.8 230.42-22.34 227.89-22.61 222.42-22.61 220.93-22.9Q220.81-23.32 220.76-23.65 220.71-23.97 220.59-24.34L220.59-24.34 220.59-26.9 220.93-28.34 222.54-28.66 228.74-28.66 231.03-28.2 231.62-30.86 228.79-31.25 222.37-31.25 219.93-30.91 218.34-29.35 218.02-27.29 218.02-23.95 218.34-21.9 219.93-20.36 222.37-20.04 227.89-20.04 229.37-19.8Q229.45-19.43 229.55-19.12 229.64-18.8 229.72-18.46L229.72-18.46 229.72-15.26Q229.67-14.94 229.56-14.58 229.45-14.21 229.37-13.89L229.37-13.89 227.79-13.65 221.73-13.65 219.34-14.04 218.73-11.4 221.59-11.06 227.93-11.06 230.42-11.35 231.99-12.89 232.33-14.99Z" opacity="1" transform="matrix(1,0,0,1,0,0)" fill="#ffffff" class="undefined-text-0" data-fill-palette-color="primary" id="text-0"></path></svg></g></svg></g></svg></g></svg></g><g transform="matrix(1,0,0,1,83.84655226289448,0)"><svg viewBox="0 0 24.306895474211036 37.18887774936062" height="37.18887774936062" width="24.306895474211036"><g><svg xmlns="http://www.w3.org/2000/svg" xmlns:xlink="http://www.w3.org/1999/xlink" version="1.1" x="0" y="0" viewBox="22.875 8.25 54.25 83.0009994506836" enable-background="new 0 0 100 100" xml:space="preserve" height="37.18887774936062" width="24.306895474211036" class="icon-icon-0" data-fill-palette-color="accent" id="icon-0"><path d="M38.917 34.167v-4.538c-2.506 0-4.538 2.032-4.538 4.538 0 2.505 2.032 4.537 4.538 4.537 2.505 0 4.538-2.032 4.538-4.537 0-1.252-0.508-2.387-1.329-3.208L38.917 34.167z" fill="#ffffff" data-fill-palette-color="accent"></path><path d="M61.084 34.167v-4.538c-2.506 0-4.538 2.032-4.538 4.538 0 2.505 2.032 4.537 4.538 4.537 2.505 0 4.537-2.032 4.537-4.537 0-1.252-0.508-2.387-1.328-3.208L61.084 34.167z" fill="#ffffff" data-fill-palette-color="accent"></path><path d="M50 8.25c-14.98 0-27.125 12.145-27.125 27.125 0 0 0 43.585 0 47.126 0 4.832 3.918 8.75 8.75 8.75 3.219 0 6.021-1.744 7.538-4.334h0.01c0.363-0.503 0.951-0.834 1.619-0.834s1.256 0.331 1.619 0.834h0.01c1.518 2.59 4.319 4.334 7.538 4.334 3.218 0 6.021-1.744 7.537-4.334h0.01c0.363-0.503 0.951-0.834 1.619-0.834s1.256 0.331 1.619 0.834h0.011c1.517 2.59 4.319 4.334 7.537 4.334 4.832 0 8.75-3.918 8.75-8.75 0-3.523 0.083-47.126 0.083-47.126C77.125 20.395 64.98 8.25 50 8.25zM30.667 34.167c0-4.556 3.693-8.25 8.25-8.25 4.557 0 8.25 3.694 8.25 8.25s-3.692 8.25-8.25 8.25C34.36 42.417 30.667 38.723 30.667 34.167zM50 56.667c-6.269 0-11.453-4.637-12.316-10.667h24.633C61.453 52.03 56.27 56.667 50 56.667zM61.084 42.417c-4.557 0-8.25-3.694-8.25-8.25s3.693-8.25 8.25-8.25 8.249 3.694 8.249 8.25S65.641 42.417 61.084 42.417z" fill="#ffffff" data-fill-palette-color="accent"></path></svg></g></svg></g><g></g></svg></g></svg></g></svg></g></svg></g><defs></defs></svg><rect width="320" height="360" fill="none" stroke="none" visibility="hidden"></rect></g></svg></g></svg>